<svg xmlns="http://www.w3.org/2000/svg" xmlns:xlink="http://www.w3.org/1999/xlink" width="500" zoomAndPan="magnify" viewBox="0 0 375 374.999991" height="500" preserveAspectRatio="xMidYMid meet" version="1.0"><defs><g/></defs><rect x="-37.5" width="450" fill="#ffffff" y="-37.499999" height="449.999989" fill-opacity="1"/><rect x="-37.5" width="450" fill="#ffffff" y="-37.499999" height="449.999989" fill-opacity="1"/><rect x="-37.5" width="450" fill="#ffffff" y="-37.499999" height="449.999989" fill-opacity="1"/><g fill="#000000" fill-opacity="1"><g transform="translate(21.004547, 185.056165)"><g><path d="M 18.9375 0.875 C 15.75 0.875 12.894531 0.0976562 10.375 -1.453125 C 7.851562 -3.003906 5.890625 -5.175781 4.484375 -7.96875 C 3.078125 -10.769531 2.375 -13.972656 2.375 -17.578125 C 2.375 -21.179688 3.078125 -24.378906 4.484375 -27.171875 C 5.890625 -29.972656 7.851562 -32.148438 10.375 -33.703125 C 12.894531 -35.265625 15.75 -36.046875 18.9375 -36.046875 C 22.132812 -36.046875 24.992188 -35.265625 27.515625 -33.703125 C 30.035156 -32.148438 32 -29.972656 33.40625 -27.171875 C 34.8125 -24.378906 35.515625 -21.179688 35.515625 -17.578125 C 35.515625 -13.972656 34.8125 -10.769531 33.40625 -7.96875 C 32 -5.175781 30.035156 -3.003906 27.515625 -1.453125 C 24.992188 0.0976562 22.132812 0.875 18.9375 0.875 Z M 18.9375 -0.125 C 21.050781 -0.125 22.945312 -0.679688 24.625 -1.796875 C 26.3125 -2.910156 27.640625 -4.53125 28.609375 -6.65625 C 29.578125 -8.78125 30.0625 -11.296875 30.0625 -14.203125 L 30.0625 -20.96875 C 30.0625 -23.863281 29.578125 -26.375 28.609375 -28.5 C 27.640625 -30.625 26.3125 -32.242188 24.625 -33.359375 C 22.945312 -34.472656 21.050781 -35.03125 18.9375 -35.03125 C 16.800781 -35.03125 14.894531 -34.472656 13.21875 -33.359375 C 11.550781 -32.242188 10.234375 -30.625 9.265625 -28.5 C 8.304688 -26.375 7.828125 -23.863281 7.828125 -20.96875 L 7.828125 -14.203125 C 7.828125 -11.296875 8.304688 -8.78125 9.265625 -6.65625 C 10.234375 -4.53125 11.550781 -2.910156 13.21875 -1.796875 C 14.894531 -0.679688 16.800781 -0.125 18.9375 -0.125 Z M 18.9375 -0.125 "/></g></g></g><g fill="#000000" fill-opacity="1"><g transform="translate(63.325102, 185.056165)"><g><path d="M 18.28125 0.875 C 15.09375 0.875 12.296875 0.0976562 9.890625 -1.453125 C 7.484375 -3.003906 5.628906 -5.171875 4.328125 -7.953125 C 3.023438 -10.734375 2.375 -13.941406 2.375 -17.578125 C 2.375 -21.210938 3.0625 -24.421875 4.4375 -27.203125 C 5.8125 -29.984375 7.738281 -32.148438 10.21875 -33.703125 C 12.695312 -35.265625 15.53125 -36.046875 18.71875 -36.046875 C 21.738281 -36.046875 24.289062 -35.28125 26.375 -33.75 L 29.046875 -36.046875 L 29.96875 -36.046875 L 29.96875 -25.140625 L 29.046875 -25.140625 L 26.15625 -32.390625 C 24.039062 -34.148438 21.5625 -35.03125 18.71875 -35.03125 C 16.664062 -35.03125 14.828125 -34.5 13.203125 -33.4375 C 11.578125 -32.382812 10.300781 -30.847656 9.375 -28.828125 C 8.457031 -26.804688 8 -24.40625 8 -21.625 L 8 -13.578125 C 8 -10.796875 8.429688 -8.394531 9.296875 -6.375 C 10.160156 -4.351562 11.359375 -2.804688 12.890625 -1.734375 C 14.429688 -0.660156 16.226562 -0.125 18.28125 -0.125 C 20.800781 -0.125 22.753906 -0.898438 24.140625 -2.453125 C 25.535156 -4.015625 26.234375 -6.097656 26.234375 -8.703125 L 26.234375 -12.796875 L 22.15625 -13.40625 L 22.15625 -14.375 L 35.296875 -14.375 L 35.296875 -13.40625 L 31.203125 -12.796875 L 31.203125 -8.703125 C 31.203125 -7.035156 30.75 -5.472656 29.84375 -4.015625 C 28.9375 -2.566406 27.515625 -1.390625 25.578125 -0.484375 C 23.648438 0.421875 21.21875 0.875 18.28125 0.875 Z M 18.28125 0.875 "/></g></g></g><g fill="#000000" fill-opacity="1"><g transform="translate(103.492332, 185.056165)"><g><path d="M 1.765625 0 L 1.765625 -0.921875 L 5.796875 -1.578125 L 5.796875 -33.578125 L 1.765625 -34.203125 L 1.765625 -35.15625 L 28.21875 -35.15625 L 28.21875 -25.09375 L 27.03125 -25.09375 L 23.640625 -34.0625 L 10.640625 -34.0625 L 10.640625 -17.578125 L 18.0625 -17.578125 L 20.65625 -23.953125 L 21.84375 -23.953125 L 21.84375 -10.0625 L 20.65625 -10.0625 L 18.0625 -16.53125 L 10.640625 -16.53125 L 10.640625 -1.578125 L 14.6875 -0.921875 L 14.6875 0 Z M 1.765625 0 "/></g></g></g><g fill="#000000" fill-opacity="1"><g transform="translate(137.463217, 185.056165)"><g><path d="M -1.234375 0 L -1.234375 -0.921875 L 3.078125 -2.6875 L 15.78125 -36.046875 L 16.484375 -36.046875 L 28.484375 -1.578125 L 32.53125 -0.921875 L 32.53125 0 L 19.609375 0 L 19.609375 -0.921875 L 23.203125 -1.5 L 19.46875 -11.90625 L 7.78125 -11.90625 L 4.21875 -2.6875 L 8.171875 -0.921875 L 8.171875 0 Z M 8.125 -12.828125 L 19.15625 -12.828125 L 13.890625 -28.3125 Z M 8.125 -12.828125 "/></g></g></g><g fill="#000000" fill-opacity="1"><g transform="translate(173.499551, 185.056165)"><g><path d="M 18.28125 0.875 C 15.09375 0.875 12.296875 0.0976562 9.890625 -1.453125 C 7.484375 -3.003906 5.628906 -5.171875 4.328125 -7.953125 C 3.023438 -10.734375 2.375 -13.941406 2.375 -17.578125 C 2.375 -21.210938 3.039062 -24.425781 4.375 -27.21875 C 5.707031 -30.019531 7.597656 -32.191406 10.046875 -33.734375 C 12.492188 -35.273438 15.3125 -36.046875 18.5 -36.046875 C 19.757812 -36.046875 21.039062 -35.820312 22.34375 -35.375 C 23.65625 -34.9375 24.835938 -34.320312 25.890625 -33.53125 L 28.828125 -36.046875 L 29.75 -36.046875 L 29.75 -25.140625 L 28.828125 -25.140625 L 26.109375 -31.953125 C 25.078125 -32.890625 23.878906 -33.632812 22.515625 -34.1875 C 21.160156 -34.75 19.820312 -35.03125 18.5 -35.03125 C 16.445312 -35.03125 14.632812 -34.5 13.0625 -33.4375 C 11.5 -32.382812 10.28125 -30.847656 9.40625 -28.828125 C 8.53125 -26.804688 8.09375 -24.40625 8.09375 -21.625 L 8.09375 -13.578125 C 8.09375 -10.796875 8.515625 -8.394531 9.359375 -6.375 C 10.210938 -4.351562 11.398438 -2.804688 12.921875 -1.734375 C 14.441406 -0.660156 16.226562 -0.125 18.28125 -0.125 C 19.78125 -0.125 21.273438 -0.453125 22.765625 -1.109375 C 24.265625 -1.773438 25.507812 -2.664062 26.5 -3.78125 L 29.046875 -10.859375 L 29.96875 -10.859375 L 29.96875 0.4375 L 29.046875 0.4375 L 25.890625 -1.796875 C 24.835938 -0.953125 23.632812 -0.296875 22.28125 0.171875 C 20.9375 0.640625 19.601562 0.875 18.28125 0.875 Z M 18.28125 0.875 "/></g></g></g><g fill="#000000" fill-opacity="1"><g transform="translate(210.678471, 185.056165)"><g><path d="M 8.921875 0 L 8.921875 -0.921875 L 12.96875 -1.578125 L 12.96875 -34.0625 L 5.71875 -34.0625 L 2.375 -25.359375 L 1.09375 -25.359375 L 1.09375 -35.15625 L 29.71875 -35.15625 L 29.71875 -25.359375 L 28.390625 -25.359375 L 25.09375 -34.0625 L 17.796875 -34.0625 L 17.796875 -1.578125 L 21.84375 -0.921875 L 21.84375 0 Z M 8.921875 0 "/></g></g></g><g fill="#000000" fill-opacity="1"><g transform="translate(245.879831, 185.056165)"><g><path d="M 18.9375 0.875 C 15.75 0.875 12.894531 0.0976562 10.375 -1.453125 C 7.851562 -3.003906 5.890625 -5.175781 4.484375 -7.96875 C 3.078125 -10.769531 2.375 -13.972656 2.375 -17.578125 C 2.375 -21.179688 3.078125 -24.378906 4.484375 -27.171875 C 5.890625 -29.972656 7.851562 -32.148438 10.375 -33.703125 C 12.894531 -35.265625 15.75 -36.046875 18.9375 -36.046875 C 22.132812 -36.046875 24.992188 -35.265625 27.515625 -33.703125 C 30.035156 -32.148438 32 -29.972656 33.40625 -27.171875 C 34.8125 -24.378906 35.515625 -21.179688 35.515625 -17.578125 C 35.515625 -13.972656 34.8125 -10.769531 33.40625 -7.96875 C 32 -5.175781 30.035156 -3.003906 27.515625 -1.453125 C 24.992188 0.0976562 22.132812 0.875 18.9375 0.875 Z M 18.9375 -0.125 C 21.050781 -0.125 22.945312 -0.679688 24.625 -1.796875 C 26.3125 -2.910156 27.640625 -4.53125 28.609375 -6.65625 C 29.578125 -8.78125 30.0625 -11.296875 30.0625 -14.203125 L 30.0625 -20.96875 C 30.0625 -23.863281 29.578125 -26.375 28.609375 -28.5 C 27.640625 -30.625 26.3125 -32.242188 24.625 -33.359375 C 22.945312 -34.472656 21.050781 -35.03125 18.9375 -35.03125 C 16.800781 -35.03125 14.894531 -34.472656 13.21875 -33.359375 C 11.550781 -32.242188 10.234375 -30.625 9.265625 -28.5 C 8.304688 -26.375 7.828125 -23.863281 7.828125 -20.96875 L 7.828125 -14.203125 C 7.828125 -11.296875 8.304688 -8.78125 9.265625 -6.65625 C 10.234375 -4.53125 11.550781 -2.910156 13.21875 -1.796875 C 14.894531 -0.679688 16.800781 -0.125 18.9375 -0.125 Z M 18.9375 -0.125 "/></g></g></g><g fill="#000000" fill-opacity="1"><g transform="translate(288.200389, 185.056165)"><g><path d="M 27.296875 0.4375 C 25.648438 0.4375 24.414062 0.0390625 23.59375 -0.75 C 22.78125 -1.539062 22.226562 -2.890625 21.9375 -4.796875 L 21.09375 -10.6875 C 20.800781 -12.675781 20.117188 -14.234375 19.046875 -15.359375 C 17.984375 -16.484375 16.320312 -17.046875 14.0625 -17.046875 L 10.640625 -17.046875 L 10.640625 -1.578125 L 14.6875 -0.921875 L 14.6875 0 L 1.765625 0 L 1.765625 -0.921875 L 5.796875 -1.578125 L 5.796875 -33.578125 L 1.765625 -34.203125 L 1.765625 -35.15625 L 14.0625 -35.15625 C 18.84375 -35.15625 22.300781 -34.40625 24.4375 -32.90625 C 26.570312 -31.414062 27.640625 -29.148438 27.640625 -26.109375 C 27.640625 -21.066406 24.59375 -18.148438 18.5 -17.359375 L 18.5 -17.09375 C 20.757812 -16.769531 22.566406 -15.960938 23.921875 -14.671875 C 25.285156 -13.390625 26.144531 -11.675781 26.5 -9.53125 L 27.078125 -5.765625 C 27.304688 -4.117188 27.570312 -3 27.875 -2.40625 C 28.1875 -1.820312 28.664062 -1.53125 29.3125 -1.53125 C 29.75 -1.53125 30.21875 -1.671875 30.71875 -1.953125 C 31.21875 -2.234375 31.6875 -2.59375 32.125 -3.03125 L 32.875 -2.234375 C 32.03125 -1.273438 31.148438 -0.585938 30.234375 -0.171875 C 29.328125 0.234375 28.347656 0.4375 27.296875 0.4375 Z M 15.5625 -18.109375 C 17.695312 -18.109375 19.359375 -18.757812 20.546875 -20.0625 C 21.734375 -21.363281 22.328125 -23.289062 22.328125 -25.84375 L 22.328125 -26.765625 C 22.328125 -31.628906 19.570312 -34.0625 14.0625 -34.0625 L 10.640625 -34.0625 L 10.640625 -18.109375 Z M 15.5625 -18.109375 "/></g></g></g><g fill="#000000" fill-opacity="1"><g transform="translate(324.588296, 185.056165)"><g><path d="M 8.609375 0 L 8.609375 -0.921875 L 12.703125 -1.578125 L 12.703125 -14.9375 L 2.015625 -33.578125 L -1.453125 -34.203125 L -1.453125 -35.15625 L 11.78125 -35.15625 L 11.78125 -34.203125 L 7.6875 -33.578125 L 16.921875 -17.625 L 25.40625 -32.078125 L 20.125 -34.203125 L 20.125 -35.15625 L 29.96875 -35.15625 L 29.96875 -34.203125 L 26.59375 -32.046875 L 17.453125 -16.390625 L 17.453125 -1.578125 L 21.53125 -0.921875 L 21.53125 0 Z M 8.609375 0 "/></g></g></g><g fill="#000000" fill-opacity="1"><g transform="translate(118.951761, 209.079713)"><g><path d="M 6.515625 -8.484375 C 7.847656 -8.066406 8.832031 -7.570312 9.46875 -7 C 10.101562 -6.4375 10.421875 -5.617188 10.421875 -4.546875 C 10.421875 -3.597656 10.203125 -2.765625 9.765625 -2.046875 C 9.335938 -1.328125 8.742188 -0.773438 7.984375 -0.390625 C 7.222656 -0.015625 6.375 0.171875 5.4375 0.171875 C 4 0.171875 2.601562 -0.113281 1.25 -0.6875 L 1.25 -4.15625 L 1.78125 -4.15625 C 2.09375 -4.15625 2.253906 -3.976562 2.265625 -3.625 L 2.375 -1.390625 C 2.914062 -1.148438 3.40625 -0.984375 3.84375 -0.890625 C 4.289062 -0.804688 4.835938 -0.765625 5.484375 -0.765625 C 6.671875 -0.765625 7.613281 -1.09375 8.3125 -1.75 C 9.019531 -2.40625 9.375 -3.28125 9.375 -4.375 C 9.375 -5.039062 9.222656 -5.566406 8.921875 -5.953125 C 8.617188 -6.335938 8.210938 -6.644531 7.703125 -6.875 C 7.203125 -7.113281 6.460938 -7.390625 5.484375 -7.703125 C 4.117188 -8.128906 3.125 -8.628906 2.5 -9.203125 C 1.875 -9.785156 1.5625 -10.625 1.5625 -11.71875 C 1.5625 -12.507812 1.757812 -13.207031 2.15625 -13.8125 C 2.550781 -14.425781 3.085938 -14.898438 3.765625 -15.234375 C 4.453125 -15.566406 5.222656 -15.734375 6.078125 -15.734375 C 7.335938 -15.734375 8.671875 -15.429688 10.078125 -14.828125 L 10.078125 -11.359375 L 9.546875 -11.359375 C 9.253906 -11.359375 9.09375 -11.53125 9.0625 -11.875 L 8.953125 -14.25 C 8.085938 -14.625 7.128906 -14.8125 6.078125 -14.8125 C 5.054688 -14.8125 4.21875 -14.53125 3.5625 -13.96875 C 2.914062 -13.414062 2.59375 -12.691406 2.59375 -11.796875 C 2.59375 -11.191406 2.75 -10.691406 3.0625 -10.296875 C 3.382812 -9.898438 3.804688 -9.570312 4.328125 -9.3125 C 4.859375 -9.0625 5.585938 -8.785156 6.515625 -8.484375 Z M 6.515625 -8.484375 "/></g></g></g><g fill="#000000" fill-opacity="1"><g transform="translate(141.323769, 209.079713)"><g><path d="M 13.0625 -12.359375 L 12.546875 -12.359375 C 12.242188 -12.359375 12.082031 -12.535156 12.0625 -12.890625 L 11.96875 -14.625 L 7.4375 -14.625 L 7.4375 -0.875 L 8.859375 -0.84375 C 9.160156 -0.8125 9.3125 -0.675781 9.3125 -0.4375 L 9.3125 0 L 4.46875 0 L 4.46875 -0.4375 C 4.46875 -0.675781 4.613281 -0.8125 4.90625 -0.84375 L 6.3125 -0.875 L 6.3125 -14.625 L 1.765625 -14.625 L 1.671875 -12.890625 C 1.660156 -12.535156 1.503906 -12.359375 1.203125 -12.359375 L 0.65625 -12.359375 L 0.65625 -15.578125 L 13.0625 -15.578125 Z M 13.0625 -12.359375 "/></g></g></g><g fill="#000000" fill-opacity="1"><g transform="translate(166.093348, 209.079713)"><g><path d="M 16.015625 -15.15625 C 16.015625 -14.925781 15.867188 -14.796875 15.578125 -14.765625 L 14.171875 -14.71875 L 14.171875 -5.9375 C 14.171875 -4.769531 13.921875 -3.722656 13.421875 -2.796875 C 12.929688 -1.867188 12.242188 -1.140625 11.359375 -0.609375 C 10.472656 -0.0859375 9.441406 0.171875 8.265625 0.171875 C 7.078125 0.171875 6.039062 -0.0859375 5.15625 -0.609375 C 4.269531 -1.140625 3.582031 -1.867188 3.09375 -2.796875 C 2.613281 -3.722656 2.375 -4.769531 2.375 -5.9375 L 2.375 -14.71875 L 0.953125 -14.765625 C 0.671875 -14.773438 0.53125 -14.90625 0.53125 -15.15625 L 0.53125 -15.578125 L 5.625 -15.578125 L 5.625 -15.15625 C 5.625 -14.925781 5.476562 -14.796875 5.1875 -14.765625 L 3.5 -14.71875 L 3.5 -5.9375 C 3.5 -4.957031 3.691406 -4.078125 4.078125 -3.296875 C 4.460938 -2.523438 5.015625 -1.914062 5.734375 -1.46875 C 6.453125 -1.019531 7.296875 -0.796875 8.265625 -0.796875 C 9.234375 -0.796875 10.078125 -1.019531 10.796875 -1.46875 C 11.515625 -1.914062 12.066406 -2.53125 12.453125 -3.3125 C 12.847656 -4.09375 13.046875 -4.96875 13.046875 -5.9375 L 13.046875 -14.71875 L 11.359375 -14.765625 C 11.054688 -14.796875 10.90625 -14.925781 10.90625 -15.15625 L 10.90625 -15.578125 L 16.015625 -15.578125 Z M 16.015625 -15.15625 "/></g></g></g><g fill="#000000" fill-opacity="1"><g transform="translate(193.678426, 209.079713)"><g><path d="M 15.796875 -7.78125 C 15.796875 -6.257812 15.492188 -4.90625 14.890625 -3.71875 C 14.285156 -2.539062 13.421875 -1.625 12.296875 -0.96875 C 11.179688 -0.320312 9.867188 0 8.359375 0 L 1.09375 0 L 1.09375 -0.4375 C 1.09375 -0.675781 1.242188 -0.8125 1.546875 -0.84375 L 2.96875 -0.875 L 2.96875 -14.71875 L 1.546875 -14.765625 C 1.242188 -14.796875 1.09375 -14.925781 1.09375 -15.15625 L 1.09375 -15.578125 L 8.359375 -15.578125 C 9.867188 -15.578125 11.179688 -15.242188 12.296875 -14.578125 C 13.421875 -13.921875 14.285156 -13 14.890625 -11.8125 C 15.492188 -10.632812 15.796875 -9.289062 15.796875 -7.78125 Z M 14.625 -7.78125 C 14.625 -9.144531 14.378906 -10.34375 13.890625 -11.375 C 13.398438 -12.414062 12.679688 -13.222656 11.734375 -13.796875 C 10.785156 -14.378906 9.660156 -14.671875 8.359375 -14.671875 L 4.09375 -14.671875 L 4.09375 -0.90625 L 8.359375 -0.90625 C 9.679688 -0.90625 10.8125 -1.191406 11.75 -1.765625 C 12.695312 -2.347656 13.410156 -3.160156 13.890625 -4.203125 C 14.378906 -5.242188 14.625 -6.4375 14.625 -7.78125 Z M 14.625 -7.78125 "/></g></g></g><g fill="#000000" fill-opacity="1"><g transform="translate(221.461474, 209.079713)"><g><path d="M 4.09375 -0.875 L 5.515625 -0.84375 C 5.796875 -0.820312 5.9375 -0.6875 5.9375 -0.4375 L 5.9375 0 L 1.09375 0 L 1.09375 -0.4375 C 1.09375 -0.675781 1.242188 -0.8125 1.546875 -0.84375 L 2.96875 -0.875 L 2.96875 -14.703125 L 1.546875 -14.734375 C 1.242188 -14.765625 1.09375 -14.898438 1.09375 -15.140625 L 1.09375 -15.578125 L 5.9375 -15.578125 L 5.9375 -15.140625 C 5.9375 -14.890625 5.796875 -14.753906 5.515625 -14.734375 L 4.09375 -14.703125 Z M 4.09375 -0.875 "/></g></g></g><g fill="#000000" fill-opacity="1"><g transform="translate(239.478262, 209.079713)"><g><path d="M 15.65625 -7.78125 C 15.65625 -6.25 15.351562 -4.875 14.75 -3.65625 C 14.144531 -2.445312 13.28125 -1.503906 12.15625 -0.828125 C 11.03125 -0.160156 9.722656 0.171875 8.234375 0.171875 C 6.742188 0.171875 5.4375 -0.164062 4.3125 -0.84375 C 3.195312 -1.53125 2.332031 -2.472656 1.71875 -3.671875 C 1.113281 -4.878906 0.8125 -6.25 0.8125 -7.78125 C 0.8125 -9.3125 1.113281 -10.679688 1.71875 -11.890625 C 2.332031 -13.097656 3.195312 -14.039062 4.3125 -14.71875 C 5.4375 -15.40625 6.742188 -15.75 8.234375 -15.75 C 9.722656 -15.75 11.03125 -15.40625 12.15625 -14.71875 C 13.289062 -14.03125 14.15625 -13.078125 14.75 -11.859375 C 15.351562 -10.648438 15.65625 -9.289062 15.65625 -7.78125 Z M 14.46875 -7.78125 C 14.46875 -9.175781 14.21875 -10.398438 13.71875 -11.453125 C 13.226562 -12.515625 12.507812 -13.332031 11.5625 -13.90625 C 10.613281 -14.488281 9.503906 -14.78125 8.234375 -14.78125 C 6.953125 -14.78125 5.84375 -14.488281 4.90625 -13.90625 C 3.96875 -13.320312 3.242188 -12.492188 2.734375 -11.421875 C 2.234375 -10.359375 1.984375 -9.144531 1.984375 -7.78125 C 1.984375 -6.414062 2.226562 -5.207031 2.71875 -4.15625 C 3.207031 -3.101562 3.921875 -2.28125 4.859375 -1.6875 C 5.796875 -1.101562 6.921875 -0.8125 8.234375 -0.8125 C 9.535156 -0.8125 10.65625 -1.097656 11.59375 -1.671875 C 12.53125 -2.253906 13.242188 -3.070312 13.734375 -4.125 C 14.222656 -5.175781 14.46875 -6.394531 14.46875 -7.78125 Z M 14.46875 -7.78125 "/></g></g></g><g fill="#000000" fill-opacity="1"><g transform="translate(81.99375, 205.893692)"><g><path d="M 5.59375 -5.625 L 5.34375 -5.625 C 5.21875 -5.625 5.144531 -5.703125 5.125 -5.859375 L 5.09375 -6.65625 L 1.859375 -6.65625 L 1.859375 -3.796875 L 4.6875 -3.796875 L 4.6875 -3.375 L 1.859375 -3.375 L 1.859375 -0.4375 L 5.09375 -0.4375 L 5.125 -1.21875 C 5.144531 -1.382812 5.21875 -1.46875 5.34375 -1.46875 L 5.59375 -1.46875 L 5.59375 0 L 0.515625 0 L 0.515625 -0.203125 C 0.515625 -0.316406 0.578125 -0.375 0.703125 -0.375 L 1.34375 -0.40625 L 1.34375 -6.6875 L 0.703125 -6.703125 C 0.566406 -6.722656 0.5 -6.785156 0.5 -6.890625 L 0.5 -7.078125 L 5.59375 -7.078125 Z M 5.59375 -5.625 "/></g></g></g><g fill="#000000" fill-opacity="1"><g transform="translate(89.2213, 205.893692)"><g><path d="M 2.953125 -3.859375 C 3.566406 -3.660156 4.015625 -3.429688 4.296875 -3.171875 C 4.585938 -2.921875 4.734375 -2.550781 4.734375 -2.0625 C 4.734375 -1.632812 4.632812 -1.253906 4.4375 -0.921875 C 4.25 -0.597656 3.976562 -0.347656 3.625 -0.171875 C 3.28125 -0.00390625 2.894531 0.078125 2.46875 0.078125 C 1.8125 0.078125 1.175781 -0.0507812 0.5625 -0.3125 L 0.5625 -1.890625 L 0.8125 -1.890625 C 0.945312 -1.890625 1.019531 -1.8125 1.03125 -1.65625 L 1.078125 -0.625 C 1.328125 -0.519531 1.550781 -0.445312 1.75 -0.40625 C 1.945312 -0.363281 2.191406 -0.34375 2.484375 -0.34375 C 3.023438 -0.34375 3.457031 -0.488281 3.78125 -0.78125 C 4.101562 -1.082031 4.265625 -1.484375 4.265625 -1.984375 C 4.265625 -2.285156 4.191406 -2.523438 4.046875 -2.703125 C 3.910156 -2.878906 3.726562 -3.019531 3.5 -3.125 C 3.269531 -3.238281 2.929688 -3.363281 2.484375 -3.5 C 1.867188 -3.695312 1.414062 -3.925781 1.125 -4.1875 C 0.84375 -4.445312 0.703125 -4.828125 0.703125 -5.328125 C 0.703125 -5.691406 0.789062 -6.007812 0.96875 -6.28125 C 1.15625 -6.5625 1.40625 -6.773438 1.71875 -6.921875 C 2.03125 -7.078125 2.378906 -7.15625 2.765625 -7.15625 C 3.335938 -7.15625 3.941406 -7.015625 4.578125 -6.734375 L 4.578125 -5.15625 L 4.34375 -5.15625 C 4.207031 -5.15625 4.132812 -5.238281 4.125 -5.40625 L 4.0625 -6.484375 C 3.675781 -6.648438 3.242188 -6.734375 2.765625 -6.734375 C 2.296875 -6.734375 1.914062 -6.601562 1.625 -6.34375 C 1.332031 -6.09375 1.1875 -5.765625 1.1875 -5.359375 C 1.1875 -5.085938 1.253906 -4.859375 1.390625 -4.671875 C 1.535156 -4.492188 1.726562 -4.347656 1.96875 -4.234375 C 2.207031 -4.117188 2.535156 -3.992188 2.953125 -3.859375 Z M 2.953125 -3.859375 "/></g></g></g><g fill="#000000" fill-opacity="1"><g transform="translate(95.369271, 205.893692)"><g><path d="M 5.9375 -5.625 L 5.703125 -5.625 C 5.566406 -5.625 5.492188 -5.703125 5.484375 -5.859375 L 5.4375 -6.65625 L 3.375 -6.65625 L 3.375 -0.40625 L 4.03125 -0.375 C 4.164062 -0.363281 4.234375 -0.304688 4.234375 -0.203125 L 4.234375 0 L 2.03125 0 L 2.03125 -0.203125 C 2.03125 -0.304688 2.097656 -0.363281 2.234375 -0.375 L 2.875 -0.40625 L 2.875 -6.65625 L 0.796875 -6.65625 L 0.765625 -5.859375 C 0.753906 -5.703125 0.679688 -5.625 0.546875 -5.625 L 0.296875 -5.625 L 0.296875 -7.078125 L 5.9375 -7.078125 Z M 5.9375 -5.625 "/></g></g></g><g fill="#000000" fill-opacity="1"><g transform="translate(102.60681, 205.893692)"><g><path d="M 1.15625 0.078125 C 1.03125 0.078125 0.921875 0.0351562 0.828125 -0.046875 C 0.742188 -0.140625 0.703125 -0.253906 0.703125 -0.390625 C 0.703125 -0.515625 0.742188 -0.617188 0.828125 -0.703125 C 0.921875 -0.796875 1.03125 -0.84375 1.15625 -0.84375 C 1.28125 -0.84375 1.390625 -0.796875 1.484375 -0.703125 C 1.578125 -0.617188 1.625 -0.515625 1.625 -0.390625 C 1.625 -0.253906 1.578125 -0.140625 1.484375 -0.046875 C 1.390625 0.0351562 1.28125 0.078125 1.15625 0.078125 Z M 1.15625 0.078125 "/></g></g></g><g fill="#000000" fill-opacity="1"><g transform="translate(269.910222, 205.683853)"><g><path d="M 4.9375 0 L 0.375 0 L 0.375 -0.15625 C 0.375 -0.226562 0.398438 -0.300781 0.453125 -0.375 L 2.875 -2.8125 C 3.34375 -3.28125 3.691406 -3.703125 3.921875 -4.078125 C 4.160156 -4.460938 4.28125 -4.847656 4.28125 -5.234375 C 4.28125 -5.691406 4.132812 -6.054688 3.84375 -6.328125 C 3.5625 -6.609375 3.179688 -6.75 2.703125 -6.75 C 2.273438 -6.75 1.910156 -6.628906 1.609375 -6.390625 C 1.316406 -6.148438 1.128906 -5.8125 1.046875 -5.375 C 1.003906 -5.25 0.921875 -5.191406 0.796875 -5.203125 L 0.546875 -5.234375 C 0.628906 -5.847656 0.863281 -6.320312 1.25 -6.65625 C 1.644531 -6.988281 2.140625 -7.15625 2.734375 -7.15625 C 3.359375 -7.15625 3.851562 -6.976562 4.21875 -6.625 C 4.582031 -6.28125 4.765625 -5.820312 4.765625 -5.25 C 4.765625 -4.925781 4.703125 -4.625 4.578125 -4.34375 C 4.460938 -4.070312 4.304688 -3.816406 4.109375 -3.578125 C 3.910156 -3.347656 3.617188 -3.03125 3.234375 -2.625 L 1.03125 -0.375 C 1.113281 -0.394531 1.222656 -0.410156 1.359375 -0.421875 C 1.492188 -0.441406 1.609375 -0.453125 1.703125 -0.453125 L 4.421875 -0.453125 L 4.484375 -1.09375 C 4.492188 -1.257812 4.5625 -1.34375 4.6875 -1.34375 L 4.9375 -1.34375 Z M 4.9375 0 "/></g></g></g><g fill="#000000" fill-opacity="1"><g transform="translate(276.348083, 205.683853)"><g><path d="M 5.625 -3.546875 C 5.625 -2.867188 5.53125 -2.253906 5.34375 -1.703125 C 5.15625 -1.160156 4.867188 -0.726562 4.484375 -0.40625 C 4.109375 -0.0820312 3.640625 0.078125 3.078125 0.078125 C 2.515625 0.078125 2.039062 -0.078125 1.65625 -0.390625 C 1.28125 -0.710938 1 -1.144531 0.8125 -1.6875 C 0.632812 -2.238281 0.546875 -2.859375 0.546875 -3.546875 C 0.546875 -4.222656 0.632812 -4.832031 0.8125 -5.375 C 1 -5.914062 1.28125 -6.347656 1.65625 -6.671875 C 2.039062 -6.992188 2.515625 -7.15625 3.078125 -7.15625 C 3.628906 -7.15625 4.097656 -6.992188 4.484375 -6.671875 C 4.867188 -6.359375 5.15625 -5.925781 5.34375 -5.375 C 5.53125 -4.832031 5.625 -4.222656 5.625 -3.546875 Z M 5.125 -3.546875 C 5.125 -4.484375 4.953125 -5.253906 4.609375 -5.859375 C 4.265625 -6.460938 3.75 -6.765625 3.0625 -6.765625 C 2.363281 -6.765625 1.851562 -6.457031 1.53125 -5.84375 C 1.207031 -5.226562 1.046875 -4.460938 1.046875 -3.546875 C 1.046875 -2.597656 1.210938 -1.820312 1.546875 -1.21875 C 1.878906 -0.613281 2.390625 -0.3125 3.078125 -0.3125 C 3.773438 -0.3125 4.289062 -0.617188 4.625 -1.234375 C 4.957031 -1.859375 5.125 -2.628906 5.125 -3.546875 Z M 5.125 -3.546875 "/></g></g></g><g fill="#000000" fill-opacity="1"><g transform="translate(283.525645, 205.683853)"><g><path d="M 4.9375 0 L 0.375 0 L 0.375 -0.15625 C 0.375 -0.226562 0.398438 -0.300781 0.453125 -0.375 L 2.875 -2.8125 C 3.34375 -3.28125 3.691406 -3.703125 3.921875 -4.078125 C 4.160156 -4.460938 4.28125 -4.847656 4.28125 -5.234375 C 4.28125 -5.691406 4.132812 -6.054688 3.84375 -6.328125 C 3.5625 -6.609375 3.179688 -6.75 2.703125 -6.75 C 2.273438 -6.75 1.910156 -6.628906 1.609375 -6.390625 C 1.316406 -6.148438 1.128906 -5.8125 1.046875 -5.375 C 1.003906 -5.25 0.921875 -5.191406 0.796875 -5.203125 L 0.546875 -5.234375 C 0.628906 -5.847656 0.863281 -6.320312 1.25 -6.65625 C 1.644531 -6.988281 2.140625 -7.15625 2.734375 -7.15625 C 3.359375 -7.15625 3.851562 -6.976562 4.21875 -6.625 C 4.582031 -6.28125 4.765625 -5.820312 4.765625 -5.25 C 4.765625 -4.925781 4.703125 -4.625 4.578125 -4.34375 C 4.460938 -4.070312 4.304688 -3.816406 4.109375 -3.578125 C 3.910156 -3.347656 3.617188 -3.03125 3.234375 -2.625 L 1.03125 -0.375 C 1.113281 -0.394531 1.222656 -0.410156 1.359375 -0.421875 C 1.492188 -0.441406 1.609375 -0.453125 1.703125 -0.453125 L 4.421875 -0.453125 L 4.484375 -1.09375 C 4.492188 -1.257812 4.5625 -1.34375 4.6875 -1.34375 L 4.9375 -1.34375 Z M 4.9375 0 "/></g></g></g><g fill="#000000" fill-opacity="1"><g transform="translate(289.963505, 205.683853)"><g><path d="M 4.9375 0 L 0.375 0 L 0.375 -0.15625 C 0.375 -0.226562 0.398438 -0.300781 0.453125 -0.375 L 2.875 -2.8125 C 3.34375 -3.28125 3.691406 -3.703125 3.921875 -4.078125 C 4.160156 -4.460938 4.28125 -4.847656 4.28125 -5.234375 C 4.28125 -5.691406 4.132812 -6.054688 3.84375 -6.328125 C 3.5625 -6.609375 3.179688 -6.75 2.703125 -6.75 C 2.273438 -6.75 1.910156 -6.628906 1.609375 -6.390625 C 1.316406 -6.148438 1.128906 -5.8125 1.046875 -5.375 C 1.003906 -5.25 0.921875 -5.191406 0.796875 -5.203125 L 0.546875 -5.234375 C 0.628906 -5.847656 0.863281 -6.320312 1.25 -6.65625 C 1.644531 -6.988281 2.140625 -7.15625 2.734375 -7.15625 C 3.359375 -7.15625 3.851562 -6.976562 4.21875 -6.625 C 4.582031 -6.28125 4.765625 -5.820312 4.765625 -5.25 C 4.765625 -4.925781 4.703125 -4.625 4.578125 -4.34375 C 4.460938 -4.070312 4.304688 -3.816406 4.109375 -3.578125 C 3.910156 -3.347656 3.617188 -3.03125 3.234375 -2.625 L 1.03125 -0.375 C 1.113281 -0.394531 1.222656 -0.410156 1.359375 -0.421875 C 1.492188 -0.441406 1.609375 -0.453125 1.703125 -0.453125 L 4.421875 -0.453125 L 4.484375 -1.09375 C 4.492188 -1.257812 4.5625 -1.34375 4.6875 -1.34375 L 4.9375 -1.34375 Z M 4.9375 0 "/></g></g></g></svg>